<?xml version="1.0" standalone="no"?>
<!DOCTYPE svg PUBLIC "-//W3C//DTD SVG 20010904//EN"
 "http://www.w3.org/TR/2001/REC-SVG-20010904/DTD/svg10.dtd">
<svg version="1.0" xmlns="http://www.w3.org/2000/svg"
 width="1099.000000pt" height="1099.000000pt" viewBox="0 0 1099.000000 1099.000000"
 preserveAspectRatio="xMidYMid meet">
<metadata>
Created by potrace 1.14, written by Peter Selinger 2001-2017
</metadata>
<g transform="translate(0.000000,1099.000000) scale(0.100000,-0.100000)"
fill="#000000" stroke="none">
<path d="M3960 7608 c0 -5 -4 -7 -8 -4 -4 2 -21 -1 -37 -9 -47 -20 -69 -28
-77 -27 -5 1 -8 -3 -8 -9 0 -5 -4 -8 -9 -4 -5 3 -13 0 -16 -6 -4 -5 -13 -8
-21 -5 -8 3 -14 1 -14 -4 0 -6 -10 -10 -22 -10 -12 0 -30 -8 -41 -17 -11 -10
-17 -12 -13 -5 7 11 4 11 -13 0 -12 -7 -21 -17 -21 -23 0 -5 -5 -3 -11 5 -7
11 -12 12 -15 3 -3 -7 -22 -17 -42 -24 -20 -6 -40 -17 -44 -23 -5 -7 -8 -6 -8
3 0 11 -5 9 -21 -5 -12 -10 -23 -18 -25 -16 -2 1 -5 2 -6 1 -2 0 -14 -3 -28
-5 -14 -3 -26 -9 -28 -14 -2 -6 -10 -10 -17 -10 -7 0 -16 -6 -18 -12 -4 -9 -6
-9 -6 -1 -1 14 -41 5 -41 -10 0 -6 -3 -8 -6 -5 -3 4 -24 -2 -47 -12 -23 -10
-45 -16 -49 -14 -5 3 -11 -1 -14 -10 -3 -8 -12 -12 -20 -9 -8 3 -14 -1 -14 -8
0 -11 -3 -11 -10 1 -7 11 -10 11 -10 2 0 -7 -4 -10 -10 -7 -5 3 -10 1 -10 -5
0 -6 -4 -8 -10 -5 -5 3 -10 1 -10 -5 0 -6 -4 -8 -10 -5 -5 3 -10 2 -10 -4 0
-5 -9 -8 -19 -6 -11 2 -25 -3 -31 -11 -7 -7 -16 -11 -21 -8 -5 3 -9 1 -9 -4 0
-5 -8 -9 -17 -9 -27 0 -63 -14 -63 -24 0 -5 -7 -6 -15 -3 -8 4 -15 1 -15 -5 0
-6 -6 -8 -14 -5 -8 3 -17 0 -21 -5 -3 -6 -11 -9 -16 -6 -5 4 -9 2 -9 -4 0 -5
-14 -13 -32 -16 -42 -10 -59 -27 -46 -48 5 -10 5 -17 0 -17 -5 0 -6 -17 -2
-40 4 -22 4 -40 1 -40 -3 0 -4 -31 -1 -70 3 -38 2 -70 -2 -70 -3 0 -3 -13 2
-30 6 -20 5 -30 -2 -30 -6 0 -6 -6 2 -15 10 -12 10 -15 -1 -15 -11 0 -11 -2 1
-10 11 -7 11 -10 2 -10 -9 0 -10 -5 -3 -19 6 -10 7 -21 4 -25 -11 -11 7 -7 36
9 16 8 31 11 35 8 3 -4 6 -1 6 5 0 7 9 12 20 12 11 0 20 4 20 9 0 8 47 26 62
23 3 -1 12 5 18 13 7 8 23 15 36 15 13 0 24 4 24 8 0 5 6 9 13 9 7 0 39 12 71
26 32 15 64 27 71 27 7 0 16 7 19 16 4 9 13 14 21 10 8 -3 15 -1 15 5 0 6 4 8
8 5 4 -2 29 6 55 20 27 13 45 19 42 14 -3 -6 1 -7 9 -4 9 3 16 10 16 14 0 5
14 11 30 15 17 4 30 11 30 16 0 5 3 8 8 7 16 -3 62 15 62 26 0 6 5 4 10 -4 6
-10 10 -11 10 -2 0 6 7 12 15 12 8 0 15 4 15 9 0 17 39 7 43 -11 3 -10 2 -18
-2 -18 -3 0 -4 -31 -1 -70 3 -38 2 -70 -2 -70 -3 0 -3 -13 2 -30 5 -17 5 -30
0 -30 -5 0 -5 -13 0 -30 5 -16 5 -30 2 -30 -4 0 -5 -31 -2 -70 3 -38 2 -70 -1
-70 -3 0 -3 -18 1 -40 4 -22 4 -40 -1 -40 -4 0 -4 -13 1 -30 5 -17 5 -30 0
-30 -5 0 -5 -13 0 -30 5 -17 5 -30 0 -30 -5 0 -5 -13 0 -30 5 -19 5 -30 -1
-30 -6 0 -5 -8 1 -20 6 -12 7 -20 1 -20 -6 0 -6 -11 -1 -30 5 -17 5 -30 0 -30
-5 0 -5 -13 0 -30 5 -17 5 -30 0 -30 -5 0 -5 -13 0 -30 5 -16 5 -30 1 -30 -5
0 -5 -18 -1 -40 4 -22 4 -40 1 -40 -3 0 -4 -31 -1 -70 3 -38 2 -70 -2 -70 -3
0 -3 -13 2 -30 5 -17 5 -30 0 -30 -5 0 -5 -13 0 -30 5 -16 5 -30 2 -30 -4 0
-5 -31 -2 -70 3 -38 2 -70 -1 -70 -3 0 -3 -18 1 -40 4 -22 4 -40 -1 -40 -4 0
-4 -13 1 -30 5 -17 5 -30 0 -30 -5 0 -5 -13 0 -30 5 -17 5 -30 0 -30 -5 0 -5
-13 0 -30 5 -19 5 -30 -1 -30 -6 0 -5 -8 1 -20 6 -12 7 -20 1 -20 -6 0 -6 -11
-1 -30 5 -17 5 -30 0 -30 -5 0 -5 -13 0 -30 5 -17 5 -30 0 -30 -5 0 -5 -13 0
-30 5 -16 5 -30 1 -30 -5 0 -5 -18 -1 -40 4 -22 4 -40 1 -40 -3 0 -4 -31 -1
-70 3 -38 2 -70 -2 -70 -3 0 -3 -13 2 -30 5 -17 5 -30 0 -30 -5 0 -5 -13 0
-30 5 -16 5 -30 2 -30 -4 0 -5 -31 -2 -70 3 -38 2 -70 -1 -70 -3 0 -3 -18 1
-40 4 -22 4 -40 1 -40 -3 0 -4 -31 -1 -70 3 -38 2 -70 -2 -70 -3 0 -3 -13 2
-30 5 -17 5 -30 0 -30 -5 0 -5 -13 0 -30 5 -16 5 -30 2 -30 -4 0 -6 -18 -4
-39 l4 -39 59 -4 c32 -1 59 -1 59 2 0 3 27 3 60 0 33 -3 60 -3 60 0 0 3 27 3
60 0 33 -3 60 -3 60 0 0 3 19 4 41 2 29 -3 40 -1 35 7 -4 6 -3 11 2 11 4 0 6
23 2 50 -4 28 -4 50 0 50 4 0 4 22 0 50 -4 27 -3 50 2 50 5 0 4 9 -2 20 -6 12
-7 20 -1 20 6 0 6 11 1 30 -5 17 -5 30 -1 30 5 0 5 18 1 40 -4 22 -4 40 1 40
4 0 4 14 -1 30 -5 19 -5 30 1 30 6 0 5 8 -1 20 -6 11 -7 20 -2 20 5 0 6 23 2
50 -4 28 -4 50 0 50 4 0 4 23 0 50 -4 28 -3 50 2 50 5 0 4 9 -2 20 -6 12 -7
20 -1 20 6 0 6 11 1 30 -5 17 -5 30 -1 30 5 0 5 18 1 40 -4 22 -4 40 -1 40 4
0 4 27 1 60 -3 33 -3 60 0 60 3 0 3 36 0 80 -3 44 -3 80 0 80 3 0 3 27 0 60
-3 33 -3 60 1 60 3 0 3 18 -1 40 -4 22 -4 40 1 40 4 0 4 14 -1 30 -5 19 -5 30
1 30 6 0 5 8 -1 20 -6 11 -7 20 -2 20 5 0 6 23 2 50 -4 28 -4 50 0 50 4 0 4
23 0 50 -4 28 -3 50 2 50 5 0 4 9 -2 20 -6 12 -7 20 -1 20 6 0 6 11 1 30 -5
17 -5 30 -1 30 5 0 5 18 1 40 -4 22 -4 40 -1 40 4 0 4 27 1 60 -3 33 -3 60 0
60 3 0 3 36 0 80 -3 44 -3 80 0 80 3 0 3 27 0 60 -3 33 -3 60 1 60 3 0 3 18
-1 40 -4 22 -4 40 1 40 4 0 4 14 -1 30 -5 19 -5 30 1 30 6 0 5 8 -1 20 -6 11
-7 20 -2 20 5 0 6 23 2 50 -4 28 -4 50 0 50 4 0 4 23 0 50 -4 28 -3 50 2 50 5
0 4 9 -2 20 -6 12 -7 20 -1 20 6 0 6 11 1 30 -5 17 -5 30 -1 30 5 0 5 18 1 40
-4 22 -4 40 1 40 4 0 4 14 -1 30 -5 19 -5 30 1 30 6 0 5 8 -1 20 -6 11 -7 20
-2 20 5 0 6 23 2 50 -4 28 -4 50 0 50 4 0 4 23 0 50 -4 28 -3 50 2 50 5 0 4 9
-2 20 -8 14 -8 20 0 20 8 0 8 6 0 20 -8 14 -8 20 0 20 8 0 8 6 0 20 -6 11 -7
20 -3 20 4 0 6 23 5 50 l-4 51 -44 -2 c-24 -2 -44 -7 -44 -11z"/>
<path d="M5382 7560 c-7 -11 -8 -20 -2 -20 6 0 6 -9 -1 -27 -7 -19 -6 -28 2
-34 7 -4 8 -12 3 -20 -12 -20 -14 -39 -3 -39 6 0 5 -8 -1 -20 -8 -14 -8 -20 0
-20 8 0 8 -6 0 -20 -8 -14 -8 -20 0 -20 8 0 8 -6 0 -20 -7 -13 -7 -20 -1 -20
7 0 7 -9 0 -27 -7 -19 -6 -28 2 -34 7 -4 8 -12 3 -20 -12 -20 -14 -39 -3 -39
5 0 4 -11 -1 -26 -12 -31 -12 -37 -1 -30 5 4 8 -2 6 -11 -2 -10 -4 -18 -5 -18
-7 0 -5 -51 3 -56 5 -4 6 -13 1 -20 -11 -18 -15 -61 -4 -54 4 3 7 -3 5 -12 -2
-10 -4 -18 -5 -18 -7 0 -5 -51 3 -56 5 -4 6 -12 1 -20 -12 -20 -14 -39 -3 -39
5 0 4 -12 -2 -27 -7 -19 -6 -28 2 -34 7 -4 8 -12 3 -20 -12 -20 -14 -39 -3
-39 6 0 5 -8 -1 -20 -8 -14 -8 -20 0 -20 8 0 8 -6 0 -20 -8 -14 -8 -20 0 -20
8 0 8 -6 0 -20 -7 -13 -7 -20 -1 -20 7 0 7 -9 0 -27 -7 -19 -6 -28 2 -34 7 -4
8 -12 3 -20 -12 -20 -14 -39 -3 -39 6 0 5 -8 -1 -20 -8 -14 -8 -20 0 -20 8 0
8 -6 0 -20 -8 -14 -8 -20 0 -20 8 0 8 -6 0 -20 -7 -13 -7 -20 -1 -20 7 0 7 -9
0 -27 -7 -19 -6 -28 2 -34 7 -4 8 -12 3 -20 -12 -20 -14 -39 -3 -39 5 0 4 -11
-1 -26 -12 -31 -12 -37 -1 -30 5 4 8 -2 6 -11 -2 -10 -4 -18 -5 -18 -7 0 -5
-51 3 -56 5 -4 6 -13 1 -20 -11 -18 -15 -61 -4 -54 4 3 7 -3 5 -12 -2 -10 -4
-18 -5 -18 -7 0 -5 -51 3 -56 5 -4 6 -13 1 -20 -11 -18 -15 -61 -4 -54 4 3 7
-3 5 -12 -2 -10 -4 -18 -5 -18 -7 0 -5 -51 3 -56 5 -4 6 -13 1 -20 -11 -18
-15 -61 -4 -54 4 3 7 -3 5 -12 -2 -10 -4 -18 -5 -18 -7 0 -5 -51 3 -56 5 -4 6
-12 1 -20 -12 -20 -14 -39 -3 -39 5 0 4 -12 -2 -27 -7 -19 -6 -28 2 -34 7 -4
8 -12 3 -20 -12 -20 -14 -39 -3 -39 6 0 5 -8 -1 -20 -8 -14 -8 -20 0 -20 8 0
8 -6 0 -20 -8 -14 -8 -20 0 -20 8 0 8 -6 0 -20 -7 -13 -7 -20 -1 -20 7 0 7 -9
0 -27 -7 -19 -6 -28 2 -34 7 -4 8 -12 3 -20 -12 -20 -14 -39 -3 -39 6 0 5 -8
-1 -20 -8 -14 -8 -20 0 -20 8 0 8 -6 0 -20 -8 -14 -8 -20 0 -20 8 0 8 -6 0
-20 -7 -13 -7 -20 -1 -20 7 0 7 -9 0 -27 -7 -19 -6 -28 2 -34 7 -4 8 -12 3
-20 -12 -20 -14 -39 -3 -39 5 0 4 -11 -1 -26 -12 -31 -12 -37 -1 -30 5 4 8 -2
6 -11 -2 -10 -4 -18 -5 -18 -7 0 -5 -51 3 -56 5 -4 6 -13 1 -20 -11 -18 -15
-61 -4 -54 4 3 7 -3 5 -12 -2 -10 -4 -18 -5 -18 -7 0 -5 -51 3 -56 5 -4 6 -12
1 -20 -12 -20 -14 -39 -3 -39 5 0 4 -12 -2 -27 -7 -19 -6 -28 2 -34 7 -4 8
-12 3 -20 -12 -20 -14 -39 -3 -39 6 0 5 -8 -1 -20 -8 -14 -8 -20 0 -20 8 0 8
-6 0 -20 -8 -14 -8 -20 0 -20 8 0 8 -6 0 -20 -8 -14 -8 -20 0 -20 6 0 8 -4 5
-10 -3 -5 -2 -16 2 -22 9 -14 43 -20 43 -9 0 4 23 5 50 1 28 -4 50 -4 50 0 0
3 27 3 60 0 33 -3 60 -3 60 0 0 3 27 3 60 0 33 -3 60 -3 60 1 0 4 10 5 21 2
20 -6 21 -3 17 36 -2 22 -1 41 3 41 3 0 3 18 -1 40 -4 22 -4 40 0 40 4 0 4 18
0 40 -4 22 -4 40 -1 40 4 0 4 27 1 60 -3 33 -3 60 0 60 4 0 4 23 0 50 -4 28
-3 50 2 50 5 0 4 9 -2 20 -6 11 -7 20 -2 20 5 0 6 23 2 50 -4 28 -4 50 0 50 4
0 4 23 0 50 -4 28 -3 50 2 50 5 0 4 9 -2 20 -6 11 -7 20 -2 20 5 0 6 23 2 50
-4 28 -4 50 -1 50 3 0 4 36 1 80 -3 44 -2 80 1 80 3 0 3 23 -1 50 -4 28 -3 50
2 50 5 0 4 9 -2 20 -6 11 -7 20 -2 20 5 0 6 23 2 50 -4 28 -4 50 0 50 4 0 4
23 0 50 -4 28 -3 50 2 50 5 0 4 9 -2 20 -6 11 -7 20 -2 20 5 0 6 23 2 50 -4
28 -4 50 -1 50 3 0 4 36 1 80 -3 44 -2 80 1 80 3 0 3 23 -1 50 -4 28 -3 50 2
50 5 0 4 9 -2 20 -6 11 -7 20 -2 20 5 0 6 23 2 50 -4 28 -4 50 0 50 4 0 4 23
0 50 -4 28 -3 50 2 50 5 0 4 9 -2 20 -6 11 -7 20 -2 20 5 0 6 23 2 50 -4 28
-4 50 -1 50 3 0 4 36 1 80 -3 44 -2 80 1 80 3 0 3 23 -1 50 -4 28 -3 50 2 50
5 0 4 9 -2 20 -6 11 -7 20 -1 20 5 0 6 14 1 34 -4 19 -5 37 -2 40 3 4 0 6 -8
6 -10 0 -10 3 0 15 13 16 35 21 25 6 -3 -5 1 -16 9 -24 8 -8 12 -17 9 -21 -3
-3 2 -8 11 -12 9 -3 16 -13 16 -20 0 -8 9 -25 20 -37 12 -12 16 -23 11 -25 -7
-2 -6 -8 2 -17 7 -7 16 -10 21 -7 5 3 6 0 2 -6 -3 -6 0 -17 8 -24 7 -8 23 -33
35 -56 12 -23 26 -42 31 -42 6 0 9 -3 9 -7 -3 -20 2 -34 11 -28 6 3 10 0 10
-8 0 -8 7 -20 15 -27 8 -7 13 -16 10 -20 -3 -4 2 -11 11 -14 9 -4 14 -9 11
-13 -4 -3 1 -12 11 -20 11 -10 12 -12 2 -8 -10 4 -9 2 3 -8 9 -8 17 -17 17
-21 0 -9 43 -70 53 -74 4 -2 7 -10 7 -18 0 -8 5 -14 11 -14 6 0 9 -5 7 -12 -2
-6 6 -21 19 -34 13 -13 23 -30 23 -39 0 -9 4 -14 8 -11 5 3 15 -10 22 -29 7
-19 20 -37 27 -40 8 -2 11 -9 8 -15 -3 -5 -2 -10 3 -10 5 0 15 -13 22 -30 7
-16 16 -30 21 -30 5 0 9 -7 9 -15 0 -8 5 -15 10 -15 6 0 10 -7 10 -15 0 -8 5
-15 10 -15 6 0 10 -6 10 -13 0 -7 9 -23 19 -34 11 -12 17 -23 14 -27 -3 -3 2
-8 11 -12 9 -3 16 -12 16 -20 0 -8 5 -14 11 -14 5 0 7 -4 4 -10 -3 -5 -1 -10
5 -10 6 0 8 -4 5 -10 -3 -5 1 -10 10 -10 9 0 14 -4 11 -9 -3 -5 3 -20 14 -34
11 -14 20 -30 20 -36 0 -6 5 -11 10 -11 6 0 10 -7 10 -15 0 -8 5 -15 10 -15 6
0 10 -6 10 -13 0 -7 9 -23 20 -35 11 -12 20 -28 20 -37 0 -8 7 -15 15 -15 14
0 19 -12 16 -32 0 -5 4 -8 10 -8 5 0 8 -4 5 -9 -3 -5 1 -11 9 -15 8 -3 15 -12
15 -20 0 -7 7 -16 15 -20 8 -3 15 -14 15 -25 0 -10 7 -22 16 -25 9 -3 14 -11
12 -18 -2 -6 3 -20 11 -29 32 -35 41 -48 41 -59 0 -5 5 -10 10 -10 6 0 9 -3 8
-7 -2 -5 9 -24 25 -44 15 -20 27 -41 27 -47 0 -7 5 -12 11 -12 5 0 7 -4 4 -10
-3 -5 -2 -10 3 -10 5 0 15 -12 23 -27 8 -16 22 -37 31 -47 10 -11 24 -32 30
-48 7 -15 16 -28 20 -28 5 0 8 -7 8 -15 0 -8 4 -15 9 -15 5 0 14 -13 21 -30 7
-16 17 -30 22 -30 5 0 6 -4 3 -10 -3 -5 -1 -10 6 -10 7 0 9 -3 6 -6 -4 -4 1
-14 11 -23 10 -9 23 -28 30 -43 6 -16 16 -28 22 -28 5 0 10 -6 10 -14 0 -7 7
-19 15 -26 8 -7 12 -16 9 -21 -3 -5 0 -9 5 -9 6 0 11 -7 11 -15 0 -8 5 -15 10
-15 6 0 10 -7 10 -15 0 -8 5 -15 10 -15 6 0 10 -7 10 -15 0 -8 5 -15 10 -15 6
0 10 -6 10 -13 0 -7 8 -22 18 -33 9 -10 23 -31 31 -46 8 -16 18 -28 23 -28 5
0 6 -4 3 -10 -3 -5 -2 -10 2 -10 5 0 14 -9 21 -21 11 -17 11 -20 0 -13 -7 5 4
-12 25 -36 20 -24 37 -50 37 -57 0 -7 5 -13 10 -13 6 0 10 -7 10 -15 0 -8 5
-15 10 -15 6 0 10 -7 10 -16 0 -10 6 -14 14 -11 7 3 19 0 25 -6 9 -9 14 -9 20
2 7 11 9 11 14 0 4 -11 6 -11 6 -1 1 10 6 10 21 2 14 -8 20 -8 20 0 0 8 6 8
20 0 14 -8 20 -8 20 0 0 8 6 8 20 0 14 -8 20 -8 20 0 0 8 6 8 20 0 12 -6 20
-7 20 -1 0 6 11 6 30 1 17 -5 30 -5 30 -1 0 4 27 4 60 1 33 -3 60 -3 60 1 0 3
11 4 25 1 14 -2 25 -1 24 4 -1 5 0 11 1 14 7 18 6 56 -3 61 -5 4 -6 12 -1 20
12 20 14 39 3 39 -6 0 -5 8 1 20 8 14 8 20 0 20 -8 0 -8 6 0 20 7 13 7 20 1
20 -7 0 -7 9 0 27 7 19 6 28 -2 34 -7 4 -8 12 -3 20 12 20 14 39 3 39 -6 0 -5
8 1 20 8 14 8 20 0 20 -8 0 -8 6 0 20 7 13 7 20 1 20 -7 0 -7 9 -1 26 12 31
12 37 1 30 -5 -4 -8 2 -6 11 2 10 4 18 5 18 7 0 5 51 -3 56 -5 4 -6 12 -1 20
12 20 14 39 3 39 -5 0 -4 12 2 27 7 19 6 28 -2 34 -7 4 -8 12 -3 20 12 20 14
39 3 39 -6 0 -5 8 1 20 7 13 7 20 1 20 -7 0 -7 9 0 27 7 19 6 28 -2 34 -7 4
-8 12 -3 20 12 20 14 39 3 39 -5 0 -4 11 1 26 12 31 12 37 1 30 -5 -4 -8 2 -6
11 2 10 4 18 5 18 7 0 5 51 -3 56 -5 4 -6 12 -1 20 12 20 14 39 3 39 -6 0 -5
8 1 20 8 14 8 20 0 20 -8 0 -8 6 0 20 7 13 7 20 1 20 -7 0 -7 9 0 27 7 19 6
28 -2 34 -7 4 -8 12 -3 20 12 20 14 39 3 39 -6 0 -5 8 1 20 8 14 8 20 0 20 -8
0 -8 6 0 20 7 13 7 20 1 20 -7 0 -7 9 -1 26 12 31 12 37 1 30 -5 -4 -8 2 -6
11 2 10 4 18 5 18 7 0 5 51 -3 56 -5 4 -6 13 -1 20 11 18 15 61 4 54 -4 -3 -7
3 -5 12 2 10 4 18 5 18 7 0 5 51 -3 56 -5 4 -6 12 -1 20 12 20 14 39 3 39 -6
0 -5 8 1 20 8 14 8 20 0 20 -8 0 -8 6 0 20 7 13 7 20 1 20 -7 0 -7 9 0 27 7
19 6 28 -2 34 -7 4 -8 12 -3 20 12 20 14 39 3 39 -6 0 -5 8 1 20 8 14 8 20 0
20 -8 0 -8 6 0 20 7 13 7 20 1 20 -7 0 -7 9 -1 26 12 31 12 37 1 30 -5 -4 -8
2 -6 11 2 10 4 18 5 18 7 0 5 51 -3 56 -5 4 -6 12 -1 20 12 20 14 39 3 39 -5
0 -4 12 2 27 7 19 6 28 -2 34 -7 4 -8 12 -3 20 12 20 14 39 3 39 -6 0 -5 8 1
20 7 13 7 20 1 20 -7 0 -7 9 0 27 7 19 6 28 -2 34 -7 4 -8 12 -3 20 12 20 14
39 3 39 -5 0 -4 11 1 26 12 31 12 37 1 30 -5 -4 -8 2 -6 11 2 10 4 18 5 18 7
0 5 51 -3 56 -5 4 -6 12 -1 20 12 20 14 39 3 39 -6 0 -5 8 1 20 8 14 8 20 0
20 -8 0 -8 6 0 20 7 13 7 20 1 20 -7 0 -7 9 0 27 7 19 6 28 -2 34 -7 4 -8 12
-3 20 12 20 14 39 3 39 -6 0 -5 8 1 20 8 14 8 20 0 20 -8 0 -8 6 0 20 7 13 7
20 1 20 -7 0 -7 9 -1 26 12 31 12 37 1 30 -5 -4 -8 2 -6 11 2 10 4 18 5 18 7
0 5 51 -3 56 -5 4 -6 12 -1 20 12 20 14 39 3 39 -5 0 -4 12 2 27 7 19 7 29 0
31 -6 2 -11 12 -11 23 0 17 -3 18 -20 9 -12 -6 -20 -7 -20 -1 0 11 -19 9 -39
-3 -8 -5 -16 -4 -21 5 -7 10 -12 10 -26 -2 -16 -12 -17 -12 -9 1 8 13 7 13 -8
1 -13 -10 -17 -10 -17 -1 0 9 -4 9 -17 -1 -11 -10 -14 -10 -9 -1 9 15 5 15
-28 2 -15 -5 -26 -6 -26 -1 0 11 -19 9 -39 -3 -8 -5 -16 -4 -21 4 -6 9 -12 9
-29 1 -13 -8 -21 -8 -21 -2 0 7 -9 7 -25 1 -16 -6 -25 -6 -25 1 0 5 -6 4 -13
-3 -9 -8 -11 -24 -7 -50 4 -21 4 -38 0 -38 -3 0 -4 -22 0 -50 4 -27 3 -50 -2
-50 -5 0 -4 -9 2 -20 6 -12 7 -20 1 -20 -6 0 -6 -11 -1 -30 5 -16 5 -30 1 -30
-5 0 -5 -18 -1 -40 4 -22 4 -40 1 -40 -4 0 -4 -27 -1 -60 3 -33 3 -60 0 -60
-3 0 -3 -36 0 -80 3 -44 3 -80 0 -80 -3 0 -3 -27 0 -60 3 -33 3 -60 -1 -60 -3
0 -3 -18 1 -40 4 -22 4 -40 -1 -40 -4 0 -4 -13 1 -30 5 -19 5 -30 -1 -30 -6 0
-5 -8 1 -20 6 -11 7 -20 2 -20 -5 0 -6 -22 -2 -50 4 -27 4 -50 0 -50 -4 0 -4
-22 0 -50 4 -27 3 -50 -2 -50 -5 0 -4 -9 2 -20 6 -12 7 -20 1 -20 -6 0 -6 -11
-1 -30 5 -16 5 -30 1 -30 -5 0 -5 -18 -1 -40 4 -22 4 -40 1 -40 -4 0 -4 -27
-1 -60 3 -33 3 -60 0 -60 -3 0 -3 -36 0 -80 3 -44 3 -80 0 -80 -3 0 -3 -36 0
-80 3 -44 3 -80 0 -80 -3 0 -3 -36 0 -80 3 -44 3 -80 0 -80 -3 0 -3 -27 0 -60
3 -33 3 -60 -1 -60 -3 0 -3 -18 1 -40 4 -22 4 -40 -1 -40 -4 0 -4 -13 1 -30 5
-19 5 -30 -1 -30 -6 0 -5 -8 1 -20 6 -11 7 -20 2 -20 -5 0 -6 -22 -2 -50 4
-27 4 -50 1 -50 -7 0 -5 -106 3 -125 3 -8 2 -15 -2 -15 -4 0 -8 -9 -8 -20 0
-11 4 -20 9 -20 4 0 5 -4 2 -10 -12 -19 -22 -10 -45 40 -13 28 -27 50 -32 50
-5 0 -7 4 -4 9 3 5 -1 11 -9 15 -8 3 -15 15 -15 26 0 11 -5 20 -11 20 -5 0 -7
5 -4 10 3 6 0 13 -8 16 -9 3 -21 19 -27 35 -7 16 -16 29 -21 29 -5 0 -9 6 -9
13 0 7 -9 23 -20 35 -11 12 -20 25 -20 30 0 4 -8 17 -18 28 -10 10 -26 36 -36
57 -9 21 -24 41 -32 44 -8 3 -11 9 -8 14 3 5 0 9 -6 9 -6 0 -9 4 -6 9 3 4 -3
16 -14 26 -11 10 -20 24 -20 32 0 7 -4 13 -10 13 -5 0 -10 7 -10 15 0 8 -5 15
-12 15 -6 0 -9 3 -5 6 3 4 1 12 -6 20 -30 33 -35 42 -30 48 3 3 -2 8 -11 12
-9 3 -16 15 -16 25 0 11 -7 22 -15 25 -12 5 -28 34 -30 56 0 3 -4 10 -9 15 -5
5 -6 2 -1 -6 5 -9 4 -12 -3 -7 -7 4 -12 16 -12 27 0 10 -7 19 -15 19 -8 0 -15
9 -15 20 0 11 -4 20 -9 20 -5 0 -14 14 -21 30 -7 17 -17 30 -22 30 -5 0 -7 4
-4 9 3 5 -1 11 -9 15 -8 3 -15 10 -15 15 0 10 -39 73 -60 99 -6 6 -8 12 -4 12
4 0 -2 8 -12 18 -10 9 -20 24 -22 32 -2 8 -8 17 -13 18 -5 2 -9 10 -9 18 0 8
-4 14 -10 14 -5 0 -10 5 -10 11 0 6 -7 17 -15 26 -8 8 -12 19 -9 25 4 7 2 8
-4 4 -7 -4 -12 -1 -12 8 0 9 -5 16 -11 16 -5 0 -8 4 -5 8 3 5 -6 20 -20 35
-14 15 -22 27 -19 27 4 0 -7 17 -24 39 -17 21 -28 41 -24 45 3 3 2 6 -4 6 -6
0 -16 14 -23 30 -7 17 -16 30 -21 30 -5 0 -9 7 -9 15 0 8 -4 15 -10 15 -5 0
-10 6 -10 13 0 7 -9 23 -20 35 -11 12 -20 26 -20 32 0 5 -5 10 -11 10 -5 0 -8
4 -5 9 4 5 3 11 -1 13 -10 4 -63 85 -63 96 0 5 -11 19 -25 32 -13 12 -22 27
-19 31 3 5 0 9 -5 9 -6 0 -11 7 -11 15 0 8 -5 15 -11 15 -5 0 -8 4 -5 9 3 5
-1 11 -9 15 -8 3 -15 12 -15 21 0 8 -5 15 -11 15 -5 0 -7 5 -4 10 3 6 1 10 -5
10 -6 0 -8 5 -5 10 3 6 1 10 -4 10 -6 0 -11 7 -11 15 0 8 -4 15 -10 15 -5 0
-17 15 -26 33 -9 17 -23 36 -30 40 -8 4 -14 17 -14 27 0 11 -4 20 -10 20 -5 0
-10 7 -10 15 0 8 -4 15 -10 15 -5 0 -10 6 -10 14 0 8 -7 16 -15 20 -8 3 -15
15 -15 26 0 11 -5 20 -11 20 -5 0 -15 14 -20 30 -6 17 -15 30 -20 30 -6 0 -15
14 -20 30 -6 17 -17 30 -25 30 -8 0 -13 3 -12 8 4 14 -13 52 -23 52 -6 0 -7 5
-4 10 3 6 2 10 -2 10 -9 0 -46 57 -41 62 3 4 -19 32 -44 56 -19 17 -48 25 -48
12 0 -10 -33 -8 -41 4 -4 4 -16 3 -28 -3 -13 -8 -21 -8 -21 -2 0 7 -9 7 -25 1
-16 -6 -25 -6 -25 1 0 6 -7 6 -20 -1 -12 -6 -20 -7 -20 -1 0 11 -19 9 -39 -3
-8 -5 -16 -4 -21 5 -7 10 -12 10 -26 -2 -16 -12 -17 -12 -9 1 8 13 7 13 -8 1
-13 -10 -17 -10 -17 -1 0 9 -4 9 -17 -1 -11 -10 -14 -10 -9 -1 9 15 5 15 -28
2 -17 -6 -26 -6 -26 0 0 17 -14 11 -28 -10z"/>
<path d="M8656 7571 c-2 -3 -3 -30 -2 -59 0 -28 -2 -52 -6 -52 -4 0 -3 -13 2
-30 5 -17 5 -30 0 -30 -5 0 -5 -13 0 -30 5 -17 5 -30 0 -30 -5 0 -5 -13 0 -30
5 -17 5 -30 0 -30 -5 0 -5 -13 0 -30 5 -17 5 -30 0 -30 -5 0 -5 -13 0 -30 5
-17 5 -30 0 -30 -5 0 -5 -13 0 -30 5 -17 5 -30 0 -30 -5 0 -5 -13 0 -30 5 -17
5 -30 0 -30 -5 0 -5 -13 0 -30 5 -17 5 -30 0 -30 -5 0 -5 -13 0 -30 5 -17 5
-30 0 -30 -5 0 -5 -13 0 -30 5 -16 6 -30 2 -30 -4 0 -5 -81 -2 -180 3 -99 2
-180 -2 -180 -4 0 -3 -13 2 -30 5 -17 5 -30 0 -30 -5 0 -5 -13 0 -30 5 -17 5
-30 0 -30 -5 0 -5 -13 0 -30 5 -17 5 -30 0 -30 -5 0 -5 -13 0 -30 5 -17 5 -30
0 -30 -5 0 -5 -13 0 -30 5 -17 5 -30 0 -30 -5 0 -5 -13 0 -30 5 -17 5 -30 0
-30 -5 0 -5 -13 0 -30 5 -17 5 -30 0 -30 -5 0 -5 -13 0 -30 5 -17 5 -30 0 -30
-5 0 -5 -13 0 -30 5 -17 5 -30 0 -30 -5 0 -5 -13 0 -30 5 -19 5 -30 -1 -30 -6
0 -5 -8 1 -20 6 -12 7 -20 1 -20 -6 0 -6 -11 -1 -30 5 -17 5 -30 0 -30 -5 0
-5 -13 0 -30 5 -17 5 -30 0 -30 -5 0 -5 -13 0 -30 5 -17 5 -30 0 -30 -5 0 -5
-13 0 -30 5 -17 5 -30 0 -30 -5 0 -5 -13 0 -30 5 -17 5 -30 0 -30 -5 0 -5 -13
0 -30 5 -17 5 -30 0 -30 -5 0 -5 -13 0 -30 5 -17 5 -30 0 -30 -5 0 -5 -13 0
-30 5 -17 5 -30 0 -30 -5 0 -5 -13 0 -30 5 -17 5 -30 0 -30 -5 0 -5 -13 0 -30
5 -16 6 -30 2 -30 -4 0 -5 -81 -2 -180 3 -99 2 -180 -2 -180 -4 0 -3 -13 2
-30 5 -17 5 -30 0 -30 -5 0 -5 -13 0 -30 5 -17 5 -30 0 -30 -5 0 -5 -13 0 -30
5 -17 5 -30 0 -30 -5 0 -5 -13 0 -30 5 -17 5 -30 0 -30 -5 0 -5 -13 0 -30 5
-17 5 -30 0 -30 -5 0 -5 -13 0 -30 5 -17 5 -30 0 -30 -5 0 -5 -13 0 -30 5 -17
5 -30 0 -30 -5 0 -5 -13 0 -30 5 -17 5 -30 0 -30 -5 0 -5 -13 0 -30 5 -16 5
-30 1 -30 -17 0 2 -58 20 -63 10 -3 19 -2 19 2 0 4 27 4 60 1 33 -3 60 -3 60
0 0 3 27 3 60 0 33 -3 60 -3 60 0 0 3 27 3 60 0 33 -3 60 -3 60 0 0 3 27 3 60
0 33 -3 60 -3 60 0 0 3 27 3 60 0 33 -3 60 -3 60 0 0 3 27 3 60 0 33 -3 60 -3
60 0 0 3 27 3 60 0 33 -3 60 -3 60 0 0 4 23 4 50 0 28 -4 50 -3 50 2 0 5 9 4
20 -2 14 -8 20 -8 20 0 0 8 6 8 20 0 14 -8 20 -8 20 0 0 8 6 8 20 0 14 -8 20
-8 20 0 0 8 6 8 20 0 14 -8 20 -8 20 0 0 8 6 8 20 0 14 -8 20 -8 20 0 0 8 6 8
20 0 14 -8 20 -8 20 0 0 8 6 8 20 0 11 -6 20 -7 20 -2 0 5 23 6 50 2 28 -4 50
-4 50 0 0 3 27 3 60 0 33 -3 60 -3 60 0 0 3 27 3 60 0 33 -3 60 -3 60 0 0 3
27 3 60 0 33 -3 60 -3 60 0 0 3 27 3 60 0 33 -3 60 -3 60 0 0 4 23 4 50 0 28
-4 50 -3 50 2 0 5 9 4 20 -2 14 -8 20 -8 20 0 0 8 6 8 20 0 14 -8 20 -8 20 0
0 7 6 8 16 2 26 -15 52 16 43 51 -4 15 -5 27 -1 27 11 0 2 274 -9 285 -6 5 -9
5 -9 -2 0 -8 -9 -9 -30 -3 -16 5 -30 5 -30 1 0 -4 -27 -4 -60 -1 -33 3 -60 3
-60 -1 0 -4 -13 -4 -30 1 -17 5 -30 5 -30 0 0 -5 -13 -5 -30 0 -16 5 -30 5
-30 1 0 -4 -27 -4 -60 -1 -33 3 -60 3 -60 -1 0 -4 -13 -4 -30 1 -17 5 -30 5
-30 0 0 -5 -13 -5 -30 0 -16 5 -30 5 -30 1 0 -4 -27 -4 -60 -1 -33 3 -60 3
-60 -1 0 -4 -13 -4 -30 1 -17 5 -30 5 -30 0 0 -5 -13 -5 -30 0 -16 5 -30 5
-30 1 0 -4 -27 -4 -60 -1 -33 3 -60 3 -60 -1 0 -4 -13 -4 -30 1 -17 5 -30 5
-30 0 0 -5 -13 -5 -30 0 -16 5 -30 5 -30 1 0 -4 -27 -4 -60 -1 -33 3 -60 3
-60 -1 0 -4 -13 -4 -30 1 -17 5 -30 5 -30 0 0 -5 -13 -5 -30 0 -16 5 -30 5
-30 1 0 -4 -27 -4 -60 -1 -33 3 -60 3 -60 -1 0 -4 -13 -4 -30 1 -17 5 -30 5
-30 0 0 -5 -13 -5 -30 0 -16 5 -30 6 -30 2 0 -4 -27 -5 -59 -4 l-59 4 -4 39
c-2 21 -1 39 2 39 3 0 3 27 0 60 -3 33 -3 60 1 60 4 0 4 14 -1 30 -5 19 -5 30
1 30 6 0 5 8 -1 20 -8 14 -8 20 0 20 8 0 8 6 0 20 -8 14 -8 20 0 20 8 0 8 6 0
20 -6 12 -7 20 -1 20 6 0 6 11 1 30 -5 17 -5 30 -1 30 4 0 4 27 1 60 -3 33 -3
60 0 60 3 0 3 27 0 60 -3 33 -3 60 1 60 4 0 4 14 -1 30 -5 19 -5 30 1 30 6 0
5 8 -1 20 -8 14 -8 20 0 20 8 0 8 6 0 20 -8 14 -8 20 0 20 8 0 8 6 0 20 -6 12
-7 20 -1 20 6 0 6 11 1 30 -5 17 -5 30 -1 30 4 0 4 27 1 60 -3 33 -3 60 0 60
3 0 3 23 1 51 -2 36 0 49 8 45 6 -4 11 -3 11 1 0 5 27 6 60 3 33 -3 60 -3 60
1 0 4 14 4 30 -1 17 -5 30 -5 30 0 0 5 13 5 30 0 17 -5 30 -5 30 -1 0 4 27 4
60 1 33 -3 60 -3 60 1 0 4 14 4 30 -1 17 -5 30 -5 30 0 0 5 13 5 30 0 17 -5
30 -5 30 -1 0 4 27 4 60 1 33 -3 60 -3 60 1 0 4 14 4 30 -1 17 -5 30 -5 30 0
0 5 13 5 30 0 17 -5 30 -5 30 -1 0 4 27 4 60 1 33 -3 60 -3 60 1 0 4 14 4 30
-1 17 -5 30 -5 30 0 0 5 13 5 30 0 17 -5 30 -5 30 -1 0 4 27 4 60 1 33 -3 60
-3 60 1 0 4 14 4 30 -1 17 -5 30 -5 30 0 0 5 13 5 30 0 17 -5 30 -5 30 -1 0 4
27 4 60 1 33 -3 60 -3 60 1 0 4 13 4 28 -1 23 -6 31 -4 42 13 9 15 10 22 1 25
-8 3 -8 9 -1 23 8 13 7 19 0 19 -8 0 -8 6 0 20 7 13 7 20 1 20 -7 0 -7 9 -1
25 6 16 6 25 -1 25 -6 0 -6 8 2 21 8 17 8 23 -1 29 -8 5 -9 13 -4 21 12 20 14
39 3 39 -6 0 -5 8 1 20 8 14 8 20 0 20 -8 0 -8 6 0 20 10 19 6 25 -14 21 -5
-1 -12 3 -16 9 -5 7 -15 8 -33 1 -15 -6 -27 -7 -27 -2 0 11 -19 9 -39 -3 -8
-5 -16 -4 -20 3 -6 8 -15 9 -34 2 -15 -6 -27 -7 -27 -2 0 11 -19 9 -39 -3 -8
-5 -16 -4 -20 3 -6 8 -15 9 -34 2 -15 -6 -27 -7 -27 -2 0 11 -19 9 -39 -3 -8
-5 -16 -4 -20 3 -6 8 -15 9 -34 2 -15 -6 -27 -7 -27 -2 0 11 -19 9 -39 -3 -8
-5 -16 -4 -20 3 -6 8 -15 9 -34 2 -18 -7 -27 -7 -27 0 0 6 -7 6 -20 -1 -14 -8
-20 -8 -20 0 0 8 -6 8 -20 0 -14 -8 -20 -8 -20 0 0 8 -6 8 -20 0 -14 -8 -20
-8 -20 0 0 8 -6 8 -20 0 -14 -8 -20 -8 -20 0 0 8 -6 8 -20 0 -14 -8 -20 -8
-20 0 0 8 -6 8 -20 0 -14 -8 -20 -8 -20 0 0 8 -6 8 -20 0 -14 -8 -20 -8 -20 0
0 8 -6 8 -20 0 -14 -8 -20 -8 -20 0 0 8 -6 8 -20 0 -12 -6 -20 -7 -20 -1 0 11
-19 9 -39 -3 -8 -5 -16 -4 -20 3 -6 8 -15 9 -34 2 -15 -6 -27 -7 -27 -2 0 11
-19 9 -39 -3 -8 -5 -16 -4 -20 3 -6 8 -15 9 -34 2 -15 -6 -27 -7 -27 -2 0 11
-19 9 -39 -3 -8 -5 -16 -4 -20 3 -6 8 -15 9 -34 2 -15 -6 -27 -7 -27 -2 0 11
-19 9 -39 -3 -8 -5 -16 -4 -20 3 -6 9 -15 9 -37 1 -16 -6 -25 -8 -21 -4 4 4 2
13 -4 21 -9 9 -8 13 0 13 9 0 9 5 1 20 -8 14 -8 20 0 20 8 0 8 6 0 20 -8 14
-8 20 0 20 8 0 8 6 0 20 -6 12 -7 20 -1 20 6 0 6 11 1 30 -5 17 -5 30 -1 30 4
0 4 27 1 60 -3 33 -3 60 0 60 3 0 3 27 0 60 -3 33 -3 60 1 60 4 0 4 14 -1 30
-5 19 -5 30 1 30 6 0 5 8 -1 20 -8 14 -8 20 0 20 8 0 8 6 0 20 -8 14 -8 20 0
20 8 0 8 6 0 20 -6 12 -7 20 -1 20 6 0 6 11 1 30 -5 17 -5 30 -1 30 4 0 4 27
1 60 -3 33 -3 60 0 60 3 0 3 27 0 60 -3 33 -3 60 0 60 10 0 6 55 -5 62 -6 5
-5 8 4 8 9 0 10 4 3 13 -7 8 -6 16 4 25 9 8 14 9 14 2 0 -8 6 -8 20 0 14 8 20
8 20 0 0 -8 6 -8 20 0 14 8 20 8 20 0 0 -8 6 -8 20 0 12 6 20 7 20 1 0 -11 19
-9 39 3 8 5 16 4 21 -4 6 -9 12 -9 29 -1 13 8 21 8 21 2 0 -7 9 -7 25 -1 16 6
25 6 25 -1 0 -6 7 -6 20 1 14 8 20 8 20 0 0 -8 6 -8 20 0 12 6 20 7 20 1 0
-11 19 -9 39 3 8 5 16 4 21 -4 6 -9 12 -9 29 -1 13 8 21 8 21 2 0 -7 9 -7 25
-1 16 6 25 6 25 -1 0 -6 7 -6 20 1 14 8 20 8 20 0 0 -8 6 -8 20 0 12 6 20 7
20 1 0 -11 19 -9 39 3 8 5 16 4 21 -4 6 -9 12 -9 29 -1 13 8 21 8 21 2 0 -7 9
-7 25 -1 16 6 25 6 25 -1 0 -6 7 -6 20 1 14 8 20 8 20 0 0 -8 6 -8 20 0 12 6
20 7 20 1 0 -11 19 -9 39 3 8 5 16 4 21 -4 6 -9 12 -9 29 -1 13 8 21 8 21 2 0
-7 9 -7 25 -1 16 6 25 6 25 -1 0 -6 7 -6 20 1 14 8 20 8 20 0 0 -8 6 -8 20 0
12 6 20 7 20 1 0 -11 19 -9 39 3 8 5 16 4 21 -4 6 -9 12 -9 29 -1 13 8 21 8
21 2 0 -7 9 -7 25 -1 16 6 25 6 25 -1 0 -6 7 -6 20 1 14 8 20 8 20 0 0 -8 6
-8 20 0 12 6 20 7 20 1 0 -11 19 -9 39 3 8 5 16 4 21 -4 6 -9 12 -9 29 -1 13
8 21 8 21 2 0 -7 9 -7 25 -1 16 6 25 6 25 -1 0 -6 7 -6 20 1 14 8 20 8 20 0 0
-8 6 -8 20 0 12 6 20 7 20 1 0 -5 8 -8 18 -7 14 2 17 14 17 69 0 37 3 67 7 67
4 0 3 14 -2 30 -5 17 -5 30 0 30 5 0 5 13 0 30 -5 17 -5 30 0 30 5 0 5 13 0
30 -5 17 -5 30 -1 30 5 0 6 11 3 25 -2 14 -8 22 -13 19 -5 -3 -9 -1 -9 5 0 5
-8 8 -17 6 -10 -2 -18 -4 -18 -5 0 -1 -8 -3 -18 -5 -9 -2 -15 1 -11 6 7 12 -3
11 -27 -1 -10 -6 -19 -7 -19 -2 0 11 -30 9 -49 -2 -8 -5 -16 -3 -21 5 -7 10
-12 10 -26 -2 -16 -12 -17 -12 -9 1 8 13 7 13 -8 1 -13 -10 -17 -10 -17 -1 0
9 -4 9 -17 -1 -11 -10 -14 -10 -9 -1 9 15 5 15 -28 2 -17 -6 -26 -6 -26 1 0 6
-7 6 -20 -1 -14 -8 -20 -8 -20 0 0 8 -6 8 -20 0 -12 -6 -20 -7 -20 -1 0 11
-19 9 -39 -3 -8 -5 -16 -4 -21 4 -6 9 -12 9 -29 1 -13 -8 -21 -8 -21 -2 0 7
-9 7 -25 1 -16 -6 -25 -6 -25 1 0 6 -7 6 -20 -1 -12 -6 -20 -7 -20 -1 0 11
-19 9 -39 -3 -8 -5 -16 -4 -21 5 -7 10 -12 10 -26 -2 -16 -12 -17 -12 -9 1 8
13 7 13 -8 1 -13 -10 -17 -10 -17 -1 0 9 -4 9 -17 -1 -11 -10 -14 -10 -9 -1 9
15 5 15 -28 2 -15 -5 -26 -6 -26 -1 0 11 -19 9 -39 -3 -8 -5 -16 -4 -21 4 -6
9 -12 9 -29 1 -13 -8 -21 -8 -21 -2 0 7 -9 7 -25 1 -14 -5 -25 -6 -25 -1 0 5
-8 8 -17 6 -10 -2 -18 -4 -18 -5 0 -1 -8 -3 -18 -5 -9 -2 -15 1 -11 6 7 12 -3
11 -27 -1 -13 -7 -19 -7 -19 -1 0 7 -9 7 -25 1 -16 -6 -25 -6 -25 1 0 6 -7 6
-20 -1 -14 -8 -20 -8 -20 0 0 8 -6 8 -20 0 -12 -6 -20 -7 -20 -1 0 11 -19 9
-39 -3 -8 -5 -16 -4 -21 4 -6 9 -12 9 -29 1 -13 -8 -21 -8 -21 -2 0 7 -9 7
-25 1 -16 -6 -25 -6 -25 1 0 6 -7 6 -20 -1 -14 -8 -20 -8 -20 0 0 8 -6 8 -20
0 -14 -8 -20 -8 -20 0 0 8 -6 8 -20 0 -14 -8 -20 -8 -20 0 0 8 -6 8 -20 0 -12
-6 -20 -7 -20 -1 0 11 -19 9 -39 -3 -8 -5 -16 -4 -21 4 -6 9 -12 9 -29 1 -13
-8 -21 -8 -21 -2 0 7 -9 7 -25 1 -16 -6 -25 -6 -25 1 0 6 -7 6 -20 -1 -12 -6
-20 -7 -20 -1 0 11 -19 9 -39 -3 -8 -5 -16 -4 -21 5 -7 10 -12 10 -26 -2 -16
-12 -17 -12 -9 1 8 13 7 13 -8 1 -13 -10 -17 -10 -17 -1 0 9 -4 9 -17 -1 -11
-10 -14 -10 -9 -1 9 15 5 15 -28 2 -17 -6 -26 -6 -26 1 0 6 -7 6 -20 -1 -14
-8 -20 -8 -20 0 0 8 -6 8 -20 0 -11 -6 -20 -7 -20 -2 0 10 -29 12 -34 3z"/>
<path d="M150 3759 c0 -4 -8 -5 -18 -2 -12 3 -22 -4 -30 -21 -7 -17 -8 -26 -1
-26 6 0 6 -7 -1 -20 -8 -14 -8 -20 0 -20 6 0 8 -5 3 -12 -11 -19 -12 -38 -2
-38 6 0 5 -8 -1 -20 -8 -14 -8 -20 0 -20 8 0 8 -6 0 -20 -7 -13 -7 -20 -1 -20
7 0 7 -9 0 -27 -7 -19 -6 -28 2 -34 7 -4 8 -12 3 -20 -12 -20 -14 -39 -3 -39
6 0 7 -6 1 -17 -7 -11 -6 -21 2 -28 14 -15 86 -25 86 -13 0 5 9 4 20 -2 11 -6
20 -7 20 -2 0 5 23 6 50 2 28 -4 50 -4 50 0 0 4 23 4 50 0 28 -4 50 -3 50 2 0
5 9 4 20 -2 11 -6 20 -7 20 -2 0 5 23 6 50 2 28 -4 50 -4 50 0 0 4 23 4 50 0
28 -4 50 -3 50 2 0 5 9 4 20 -2 11 -6 20 -7 20 -2 0 5 23 6 50 2 28 -4 50 -4
50 0 0 4 23 4 50 0 28 -4 50 -3 50 2 0 5 9 4 20 -2 11 -6 20 -7 20 -2 0 5 23
6 50 2 28 -4 50 -4 50 0 0 4 23 4 50 0 28 -4 50 -3 50 2 0 5 9 4 20 -2 11 -6
20 -7 20 -2 0 5 23 6 50 2 28 -4 50 -4 50 0 0 4 23 4 50 0 28 -4 50 -3 50 2 0
5 9 4 20 -2 11 -6 20 -7 20 -2 0 5 23 6 50 2 28 -4 50 -4 50 0 0 4 23 4 50 0
28 -4 50 -3 50 2 0 5 9 4 20 -2 11 -6 20 -7 20 -2 0 5 23 6 50 2 28 -4 50 -4
50 0 0 4 22 4 50 0 28 -4 50 -3 50 2 0 5 9 4 20 -2 11 -6 20 -7 20 -2 0 5 23
6 50 2 28 -4 50 -4 50 0 0 4 23 4 50 0 28 -4 50 -3 50 2 0 5 9 4 20 -2 11 -6
20 -7 20 -2 0 5 23 6 50 2 28 -4 50 -4 50 0 0 4 23 4 50 0 28 -4 50 -3 50 2 0
5 9 4 20 -2 14 -8 20 -8 20 0 0 6 5 8 12 4 8 -5 9 0 6 14 -4 12 -2 22 2 22 5
0 5 14 0 30 -5 17 -5 30 0 30 5 0 5 13 0 30 -5 17 -5 30 0 30 5 0 5 13 0 30
-5 17 -6 30 -2 30 10 0 2 174 -9 185 -6 5 -9 5 -9 -1 0 -6 -23 -8 -60 -4 -33
3 -60 3 -60 -1 0 -3 -18 -3 -40 1 -22 4 -40 4 -40 1 0 -4 -27 -4 -60 -1 -33 3
-60 3 -60 0 0 -3 -27 -3 -60 0 -33 3 -60 3 -60 0 0 -3 -27 -3 -60 0 -33 3 -60
3 -60 0 0 -3 -36 -3 -80 0 -44 3 -80 2 -80 -1 0 -3 -22 -3 -50 1 -27 4 -50 3
-50 -2 0 -5 -9 -4 -20 2 -14 8 -20 8 -20 0 0 -8 -6 -8 -20 0 -14 8 -20 8 -20
0 0 -8 -6 -8 -20 0 -12 6 -20 7 -20 1 0 -6 -11 -6 -30 -1 -16 5 -30 5 -30 1 0
-4 -27 -4 -60 -1 -33 3 -60 3 -60 0 0 -3 -27 -3 -60 0 -33 3 -60 3 -60 -1 0
-4 -13 -4 -30 1 -19 5 -30 5 -30 -1 0 -6 -8 -5 -20 1 -14 8 -20 8 -20 0 0 -8
-6 -8 -20 0 -14 8 -20 8 -20 0 0 -8 -6 -8 -20 0 -11 6 -20 7 -20 2 0 -5 -22
-6 -50 -2 -27 4 -50 4 -50 1 0 -3 -36 -4 -80 -1 -44 3 -80 3 -80 0 0 -3 -27
-3 -60 0 -33 3 -60 3 -60 0 0 -3 -27 -3 -60 0 -33 3 -60 3 -60 0 0 -3 -27 -3
-60 0 -33 3 -60 3 -60 -1 0 -3 -18 -3 -40 1 -22 4 -40 4 -40 1 0 -4 -27 -4
-60 -1 -33 3 -60 3 -60 -1z"/>
</g>
</svg>
